<svg xmlns="http://www.w3.org/2000/svg" version="1.0" width="1280.000000pt" height="702.000000pt" viewBox="0 0 1280.000000 702.000000" preserveAspectRatio="xMidYMid meet">
<metadata>
Created by potrace 1.15, written by Peter Selinger 2001-2017
</metadata>
<g transform="translate(0.000000,702.000000) scale(0.100000,-0.100000)" fill="#FFF" stroke="none">
<path d="M7355 7008 c-712 -56 -1356 -364 -1723 -822 -50 -62 -155 -221 -164 -247 -2 -6 -66 52 -143 129 -434 433 -941 642 -1553 642 -409 0 -766 -84 -1147 -270 -595 -290 -1035 -764 -1214 -1311 -65 -199 -76 -271 -75 -524 0 -252 11 -332 74 -530 17 -51 30 -94 30 -96 0 -3 -39 -1 -87 4 -286 27 -598 -44 -817 -186 -359 -235 -556 -676 -533 -1197 31 -693 413 -1328 966 -1605 165 -83 296 -123 484 -150 115 -16 297 -19 401 -5 l69 8 96 -87 c211 -191 405 -326 641 -445 391 -198 789 -296 1265 -312 542 -19 1138 98 1747 342 l158 63 72 -25 c407 -139 833 -230 1293 -275 170 -17 703 -18 865 -1 505 51 903 144 1325 309 144 56 448 209 562 282 l82 53 113 -25 c713 -159 1299 -112 1750 140 490 273 786 748 884 1418 22 146 25 556 6 710 -73 576 -273 1097 -581 1510 -150 201 -398 424 -599 538 -441 253 -951 256 -1461 11 -63 -30 -115 -53 -117 -51 -2 2 -8 46 -14 98 -77 687 -441 1244 -1030 1578 -460 260 -1033 377 -1625 329z"/>
</g>
</svg>
